<?xml version="1.0" encoding="UTF-8" standalone="no"?>
<svg width="125px" height="39px" viewBox="0 0 125 39" version="1.1" xmlns="http://www.w3.org/2000/svg" xmlns:xlink="http://www.w3.org/1999/xlink">
    <!-- Generator: Sketch 42 (36781) - http://www.bohemiancoding.com/sketch -->
    <title>Page 1 Copy</title>
    <desc>Created with Sketch.</desc>
    <defs>
        <polygon id="path-1" points="125 0 -1.13672421e-13 0 -1.13686838e-13 0 -1.13686838e-13 19.5 -1.13686838e-13 39 125 39 125 7.4364323e-15"></polygon>
    </defs>
    <g id="Welcome" stroke="none" stroke-width="1" fill="none" fill-rule="evenodd">
        <g id="Mobile-Portrait-Copy-3" transform="translate(-19.000000, -2028.000000)">
            <g id="Page-1-Copy" transform="translate(19.000000, 2028.000000)">
                <mask id="mask-2" fill="white">
                    <use xlink:href="#path-1"></use>
                </mask>
                <g id="Clip-2"></g>
                <path d="M13.6286706,27.8991584 C14.6677646,27.8991584 15.6781791,27.7296892 16.657049,27.3907562 C17.6349656,27.0518179 18.507727,26.4894938 19.2715149,25.7037785 C20.036256,24.9180632 20.6490094,23.8935558 21.1068998,22.6302509 C21.5667019,21.366946 21.7961237,19.826328 21.7961237,18.0084022 C21.7961237,16.3445339 21.6355258,14.8424368 21.3143353,13.5021005 C20.9931447,12.1617642 20.4645135,11.0140065 19.7313169,10.0588221 C18.9962087,9.10363765 18.0259386,8.37184963 16.8176468,7.86344221 C15.6083967,7.35504006 14.1171523,7.10083635 12.3429448,7.10083635 L7.20387522,7.10083635 L7.20387522,27.8991584 L13.6286706,27.8991584 Z M14.1324453,1 C16.2431365,1 18.2085228,1.33989722 20.0286095,2.0168043 C21.8496546,2.69467559 23.4250264,3.71148516 24.7556782,5.06722775 C26.0853715,6.42296506 27.125424,8.11764592 27.8748721,10.1512598 C28.6252734,12.1848737 29,14.5728268 29,17.3151246 C29,19.718484 28.6941025,21.9369733 28.0823075,23.9705872 C27.4695593,26.0042011 26.5451735,27.7605018 25.3062905,29.2394947 C24.0674075,30.7184875 22.522627,31.8816516 20.6709958,32.728992 C18.8203178,33.5763271 16.6408027,34 14.1324453,34 L-1.13686838e-13,34 L-1.13686838e-13,1 L14.1324453,1 Z" id="Fill-1" fill="#000000" mask="url(#mask-2)"></path>
                <polygon id="Fill-3" fill="#000000" mask="url(#mask-2)" points="38 34 31 34 31 1 38 1"></polygon>
                <path d="M62.1719431,21.243701 L58.0458322,9.13445549 L57.9541627,9.13445549 L53.6905734,21.243701 L62.1719431,21.243701 Z M61.7593009,1 L74,34 L66.5272536,34 L64.0516078,26.6512651 L51.8108932,26.6512651 L49.2435571,34 L42,34 L54.378224,1 L61.7593009,1 Z" id="Fill-4" fill="#000000" mask="url(#mask-2)"></path>
                <path d="M80.6884832,25.2610434 C81.0912768,26.0196342 81.6269849,26.6350413 82.2947134,27.1044161 C82.9634412,27.5756899 83.7466744,27.9236945 84.6483051,28.1512733 C85.5489364,28.3788469 86.4807056,28.4926363 87.4434549,28.4926363 C88.0956671,28.4926363 88.7944808,28.4404841 89.5398436,28.3333312 C90.2852064,28.2271329 90.9830208,28.0232616 91.6352329,27.7188736 C92.2883918,27.41639 92.831937,26.9991622 93.26671,26.4672007 C93.7005363,25.9371382 93.9189222,25.2610434 93.9189222,24.441765 C93.9189222,23.561804 93.6316333,22.848729 93.0570554,22.3025451 C92.4815308,21.7563612 91.7293829,21.3012036 90.7976663,20.9370827 C89.8659497,20.5729567 88.8089978,20.2543515 87.6288094,19.981257 C86.4496204,19.7081676 85.2539156,19.4056788 84.0426945,19.0709522 C82.8003882,18.7684634 81.5891671,18.395807 80.4089787,17.9558213 C79.2278436,17.5167904 78.1728378,16.9478486 77.2401744,16.248996 C76.3084052,15.5510929 75.5562574,14.6787127 74.9816795,13.6318606 C74.4061549,12.5850086 74.1188659,11.3181637 74.1188659,9.83132594 C74.1188659,8.16337472 74.4837892,6.71352245 75.2136356,5.48460735 C75.943482,4.25569226 76.8994988,3.23159289 78.0796872,2.41231443 C79.2588762,1.59304116 80.5943332,0.986169572 82.0851113,0.591699668 C83.5768362,0.198184494 85.0675618,0 86.5583399,0 C88.2975372,0 89.9668848,0.190598535 91.5663299,0.568941789 C93.1648282,0.949184127 94.5857039,1.56364167 95.828957,2.41231443 C97.070264,3.26193673 98.0573135,4.34671859 98.7862131,5.6666652 C99.5160596,6.98661181 99.8809828,8.58818847 99.8809828,10.4685414 L92.799905,10.4685414 C92.737787,9.49754371 92.5281324,8.69344236 92.1719404,8.05622694 C91.8148016,7.41901151 91.3411589,6.91833817 90.7510647,6.55421729 C90.1609705,6.19009642 89.4845108,5.93312333 88.7236317,5.78045459 C87.9626999,5.6287354 87.1328652,5.55288099 86.2322338,5.55288099 C85.6421396,5.55288099 85.0510987,5.61451302 84.4619512,5.73493883 C83.8709103,5.85726373 83.3361489,6.06966541 82.8537749,6.37215426 C82.3724003,6.67559265 81.9763918,7.05488544 81.6668014,7.51004303 C81.3552649,7.96519542 81.1999437,8.54267271 81.1999437,9.23962627 C81.1999437,9.8768417 81.3241796,10.3936313 81.5735982,10.7871465 C81.82207,11.1816164 82.3112291,11.5466868 83.0410755,11.8795195 C83.7699752,12.2142461 84.7802729,12.5470788 86.0691808,12.8808558 C87.3570894,13.2155824 89.0419533,13.6403961 91.1237724,14.1552866 C91.7448992,14.2776115 92.6057667,14.4966548 93.7092675,14.81526 C94.8108223,15.1338703 95.9065913,15.6421244 96.9935765,16.3400275 C98.0806143,17.0388801 99.0201153,17.9719428 99.8120271,19.1392258 C100.603992,20.3074533 101,21.8018718 101,23.6224917 C101,25.1093242 100.70398,26.4899585 100.114885,27.7643894 C99.5237914,29.0388202 98.6474077,30.1397236 97.4827356,31.0642559 C96.3181161,31.9906873 94.8739396,32.7103988 93.1502586,33.2262389 C91.4255783,33.7420789 89.4301773,34 87.1639505,34 C85.3306032,34 83.5535354,33.7800087 81.8298544,33.3400283 C80.1051741,32.9009921 78.5833633,32.210675 77.264422,31.2690768 C75.943482,30.3293725 74.895314,29.1298518 74.1188659,27.6733579 C73.3434173,26.2168692 72.9707096,24.4872807 73.0017948,22.4846029 L80.0828727,22.4846029 C80.0828727,23.5769759 80.2837961,24.5034022 80.6884832,25.2610434" id="Fill-5" fill="#000000" mask="url(#mask-2)"></path>
                <polygon id="Fill-6" fill="#000000" mask="url(#mask-2)" points="125 39 102 39 102 37 125 37"></polygon>
            </g>
        </g>
    </g>
</svg>