<?xml version="1.0" encoding="UTF-8" standalone="no"?>
<svg width="32px" height="32px" viewBox="0 0 32 32" version="1.1" xmlns="http://www.w3.org/2000/svg" xmlns:xlink="http://www.w3.org/1999/xlink">
    <!-- Generator: Sketch 42 (36781) - http://www.bohemiancoding.com/sketch -->
    <title>INFO BUTTON</title>
    <desc>Created with Sketch.</desc>
    <defs></defs>
    <g id="Symbols" stroke="none" stroke-width="1" fill="none" fill-rule="evenodd">
        <g id="LOGO-SOCIAL-LOCK-UP-NORM" transform="translate(1.000000, -70.000000)">
            <g id="INFO-BUTTON" transform="translate(0.000000, 71.000000)">
                <circle id="Oval" stroke="#FFFFFF" stroke-width="1" cx="15" cy="15" r="15"></circle>
                <path d="M16.7856445,7.36083984 C16.7856445,7.80908427 16.627443,8.19140467 16.3110352,8.5078125 C15.9946273,8.82422033 15.6123069,8.98242188 15.1640625,8.98242188 C14.7158181,8.98242188 14.3334977,8.82422033 14.0170898,8.5078125 C13.700682,8.19140467 13.5424805,7.80908427 13.5424805,7.36083984 C13.5424805,6.91259542 13.700682,6.53027502 14.0170898,6.21386719 C14.3334977,5.89745936 14.7158181,5.73925781 15.1640625,5.73925781 C15.6123069,5.73925781 15.9946273,5.89745936 16.3110352,6.21386719 C16.627443,6.53027502 16.7856445,6.91259542 16.7856445,7.36083984 Z M13.7929688,23.3657227 L13.7929688,11.3686523 C13.7929688,10.9819317 13.9270006,10.6545424 14.1950684,10.3864746 C14.4631361,10.1184069 14.7861309,9.984375 15.1640625,9.984375 C15.5419941,9.984375 15.8649889,10.1184069 16.1330566,10.3864746 C16.4011244,10.6545424 16.5395507,10.9819317 16.5483398,11.3686523 L16.5483398,23.3657227 C16.5395507,23.7524433 16.4011244,24.0798326 16.1330566,24.3479004 C15.8649889,24.6159681 15.5419941,24.75 15.1640625,24.75 C14.7861309,24.75 14.4631361,24.6159681 14.1950684,24.3479004 C13.9270006,24.0798326 13.7929688,23.7524433 13.7929688,23.3657227 Z" id="i" fill="#FFFFFF" fill-rule="evenodd"></path>
            </g>
        </g>
    </g>
</svg>