<?xml version="1.0" encoding="UTF-8" standalone="no"?>
<svg width="31px" height="31px" viewBox="0 0 31 31" version="1.1" xmlns="http://www.w3.org/2000/svg" xmlns:xlink="http://www.w3.org/1999/xlink">
    <!-- Generator: Sketch 40.1 (33804) - http://www.bohemiancoding.com/sketch -->
    <title>fb</title>
    <desc>Created with Sketch.</desc>
    <defs></defs>
    <g id="Page-1" stroke="none" stroke-width="1" fill="none" fill-rule="evenodd">
        <g id="Desktop-HD" transform="translate(-1066.000000, -17.000000)" fill="#ffffff">
            <g id="fb" transform="translate(1066.000000, 17.000000)">
                <path d="M15.5,0 C6.9265625,0 0,6.9265625 0,15.5 C0,24.0734375 6.9265625,31 15.5,31 C24.0734375,31 31,24.0734375 31,15.5 C31,6.9265625 24.0734375,0 15.5,0 L15.5,0 Z M20.053125,9.10625 L17.8734375,9.10625 C17.0984375,9.10625 16.953125,9.396875 16.953125,10.2203125 L16.953125,12.109375 L20.053125,12.109375 L19.7625,15.5 L16.953125,15.5 L16.953125,25.5265625 L12.9328125,25.5265625 L12.9328125,15.5484375 L10.85,15.5484375 L10.85,12.1578125 L12.9328125,12.1578125 L12.9328125,9.49375 C12.9328125,6.975 14.2890625,5.6671875 17.24375,5.6671875 L20.0046875,5.6671875 L20.0046875,9.10625 L20.053125,9.10625 Z" id="Shape"></path>
            </g>
        </g>
    </g>
</svg>
