<?xml version="1.0" encoding="UTF-8" standalone="no"?>
<svg width="31px" height="31px" viewBox="0 0 31 31" version="1.1" xmlns="http://www.w3.org/2000/svg" xmlns:xlink="http://www.w3.org/1999/xlink">
    <!-- Generator: Sketch 40.1 (33804) - http://www.bohemiancoding.com/sketch -->
    <title>twitter</title>
    <desc>Created with Sketch.</desc>
    <defs></defs>
    <g id="Page-1" stroke="none" stroke-width="1" fill="none" fill-rule="evenodd">
        <g id="Desktop-HD" transform="translate(-1111.000000, -17.000000)" fill="#ffffff">
            <g id="twitter" transform="translate(1111.000000, 17.000000)">
                <path d="M15.5,0 C6.9265625,0 0,6.9265625 0,15.5 C0,24.0734375 6.9265625,31 15.5,31 C24.0734375,31 31,24.0734375 31,15.5 C31,6.9265625 24.0734375,0 15.5,0 L15.5,0 Z M23.2984375,12.8359375 C23.540625,17.8734375 19.7625,23.540625 13.078125,23.540625 C11.04375,23.540625 9.1546875,22.959375 7.55625,21.9421875 C9.4453125,22.184375 11.3828125,21.6515625 12.884375,20.440625 C11.334375,20.3921875 9.978125,19.375 9.5421875,17.921875 C10.1234375,18.01875 10.65625,18.01875 11.1890625,17.8734375 C9.4453125,17.534375 8.2828125,15.984375 8.2828125,14.2890625 C8.7671875,14.5796875 9.3,14.725 9.9296875,14.725 C8.33125,13.659375 7.8953125,11.528125 8.815625,9.9296875 C10.6078125,12.109375 13.2234375,13.5140625 16.2265625,13.7078125 C15.69375,11.4796875 17.3890625,9.3 19.7140625,9.3 C20.73125,9.3 21.7,9.7359375 22.3296875,10.4140625 C23.153125,10.26875 23.928125,9.9296875 24.60625,9.5421875 C24.315625,10.365625 23.7828125,11.0921875 23.0078125,11.528125 C23.734375,11.43125 24.4125,11.2375 25.090625,10.946875 C24.60625,11.6734375 23.9765625,12.303125 23.2984375,12.8359375 L23.2984375,12.8359375 Z" id="Shape"></path>
            </g>
        </g>
    </g>
</svg>
