<?xml version="1.0" encoding="utf-8"?>
<!-- Generator: Adobe Illustrator 16.2.1, SVG Export Plug-In . SVG Version: 6.00 Build 0)  -->
<!DOCTYPE svg PUBLIC "-//W3C//DTD SVG 1.1//EN" "http://www.w3.org/Graphics/SVG/1.1/DTD/svg11.dtd">
<svg version="1.1" id="Layer_1" xmlns="http://www.w3.org/2000/svg" xmlns:xlink="http://www.w3.org/1999/xlink" x="0px" y="0px"
	 width="708px" height="363px" viewBox="0 0 708 363" enable-background="new 0 0 708 363" xml:space="preserve">
<g id="_x31_st">
	<path id="landscape_4_" fill="#7EC172" d="M709.397,367.25V243.751c0,0,5.362,13.809-52.836,48.917
		c-61.138,36.881-290.822,29.453-389.842-9.68C167.7,243.854,44.803,173.489-1.603,208.604V367.25"/>
	
		<path fill="none" stroke="#FFFFFF" stroke-width="5" stroke-linecap="round" stroke-linejoin="round" stroke-miterlimit="10" stroke-opacity="0.5" stroke-dasharray="16,18" d="
		M413.397,320.93c-59.031,90-200.408-83.025-223.991,40.32"/>
	<g>
		<path fill="#A88862" d="M550.397,308.25v16.746c0,0-0.755,4.254,3.5,4.254s3.5-4.254,3.5-4.254V308.25H550.397z"/>
		<path fill="#3E7543" d="M553.119,316.483c-8.51,0-8.51-4.255-8.51-4.255s-8.513,4.255-12.768,0c-4.254-4.254,0-13.233,0-13.233
			c4.255-12.768,4.255-21.745,4.255-21.745h34.044c0,0,0,8.978,4.255,21.745c0,0,4.255,8.746,0,12.999
			c-4.255,4.256-12.768,0.118-12.768,0.118S561.628,316.483,553.119,316.483z"/>
		<path fill="#5EA05B" d="M540.352,249.25c0,0-4.255,16.598-8.51,25.107c-1.903,3.808,0,8.297,4.255,8.297
			c8.513,0,8.513-4.359,8.513-4.359s0,8.454,8.51,8.454c8.509,0,8.509-8.535,8.509-8.535s0,4.243,8.513,4.243
			c4.255,0,6.159-4.285,4.255-8.092c-4.255-8.511-8.51-25.114-8.51-25.114H540.352z"/>
		<path fill="#7EC172" d="M553.119,207.974c-4.255,0-12.768,25.531-17.022,34.044c-4.255,8.509,0,12.764,4.255,12.764
			c4.258,0,4.258-4.254,4.258-4.254s0,8.509,8.51,8.509c8.509,0,8.509-8.509,8.509-8.509s0,4.254,4.258,4.254
			c4.255,0,8.51-4.254,4.255-12.764C565.886,233.505,557.373,207.971,553.119,207.974z"/>
	</g>
	<g>
		<path fill="#A88862" d="M155.397,252.25v17.508c0,0-0.492,4.492,4,4.492s4-4.492,4-4.492V252.25H155.397z"/>
		<path fill="#3E7543" d="M158.827,260.771c-8.984,0-8.984-4.492-8.984-4.492s-8.987,4.492-13.479,0c-4.492-4.492,0-14.021,0-14.021
			c4.492-13.479,4.492-23.008,4.492-23.008h35.942c0,0,0,9.528,4.492,23.008c0,0,4.492,9.258,0,13.749
			c-4.492,4.494-13.479,0.137-13.479,0.137S167.811,260.771,158.827,260.771z"/>
		<path fill="#5EA05B" d="M145.347,189.25c0,0-4.492,17.793-8.984,26.776c-2.01,4.021,0,8.895,4.492,8.895
			c8.987,0,8.987-4.536,8.987-4.536s0,8.959,8.984,8.959s8.984-8.995,8.984-8.995s0,4.488,8.987,4.488
			c4.492,0,6.502-4.79,4.492-8.808c-4.492-8.986-8.984-26.78-8.984-26.78H145.347z"/>
		<path fill="#7EC172" d="M158.827,146.21c-4.492,0-13.479,26.955-17.971,35.942c-4.492,8.984,0,13.476,4.492,13.476
			c4.496,0,4.496-4.492,4.496-4.492s0,8.984,8.984,8.984s8.984-8.984,8.984-8.984s0,4.492,4.496,4.492
			c4.492,0,8.984-4.492,4.492-13.476C172.306,173.166,163.319,146.207,158.827,146.21z"/>
	</g>
	<g>
		<path fill="#A88862" d="M266.397,277.25v17.636c0,0-0.865,4.364,3.5,4.364s3.5-4.364,3.5-4.364V277.25H266.397z"/>
		<path fill="#3E7543" d="M269.246,286.153c-8.729,0-8.729-4.365-8.729-4.365s-8.733,4.365-13.097,0c-4.364-4.364,0-13.902,0-13.902
			c4.364-13.098,4.364-22.636,4.364-22.636h34.923c0,0,0,9.538,4.365,22.636c0,0,4.364,9.135,0,13.498
			c-4.365,4.367-13.098,0.204-13.098,0.204S277.975,286.153,269.246,286.153z"/>
		<path fill="#5EA05B" d="M256.148,217.25c0,0-4.365,16.993-8.729,25.723c-1.954,3.906,0,8.495,4.364,8.495
			c8.733,0,8.733-4.48,8.733-4.48s0,8.668,8.729,8.668s8.729-8.758,8.729-8.758s0,4.352,8.732,4.352
			c4.365,0,6.318-4.363,4.365-8.269c-4.365-8.73-8.729-25.73-8.729-25.73H256.148z"/>
		<path fill="#7EC172" d="M269.246,174.841c-4.364,0-13.097,26.191-17.462,34.923c-4.364,8.729,0,13.094,4.365,13.094
			c4.368,0,4.368-4.365,4.368-4.365s0,8.729,8.729,8.729s8.729-8.729,8.729-8.729s0,4.365,4.368,4.365
			c4.364,0,8.729-4.365,4.364-13.094C282.343,201.032,273.61,174.837,269.246,174.841z"/>
	</g>
</g>
</svg>
