<?xml version="1.0" encoding="utf-8"?>
<!-- Generator: Adobe Illustrator 16.2.1, SVG Export Plug-In . SVG Version: 6.00 Build 0)  -->
<!DOCTYPE svg PUBLIC "-//W3C//DTD SVG 1.1//EN" "http://www.w3.org/Graphics/SVG/1.1/DTD/svg11.dtd">
<svg version="1.1" id="Layer_1" xmlns="http://www.w3.org/2000/svg" xmlns:xlink="http://www.w3.org/1999/xlink" x="0px" y="0px"
	 width="708px" height="363px" viewBox="0 0 708 363" enable-background="new 0 0 708 363" xml:space="preserve">
<g id="_x32_nd">
	<path id="landscape" fill="#ACDE78" d="M710.397,367.25V180.037c-45.772-33.447-114.699-60.115-204.143-61.975
		c-90.139-1.875-161.894,63.754-253.488,76.816c-58.078,8.282-111.789,2.07-151.711-3.379c-29.922-4.084-57.263,0.105-67.151,3.28
		c-16.117,5.174-29.506,11.756-36.508,18.48V367.25"/>
	<path fill="#6DC274" d="M474.907,135.062c0-2.796,11.344-15.558,24.202-32.547c10.104-13.351,21.539-29.028,24.178-30.788
		c2.64-1.759,4.851-3.518,9.249,1.76c4.397,5.277,12.812,18.187,18.282,24.904c7.037,8.64,19.353,26.367,19.353,26.367
		s9.842,13.511,8.534,14.545c-4.005,3.172-7.211,20.2-9.85,21.08s-20.059,7.917-29.734,7.037s-14.954-0.88-20.231-0.88
		c-5.278,0-16.714-14.922-24.631-14.922C486.343,151.619,474.907,137.855,474.907,135.062z"/>
	<path fill="#ACDE78" d="M498.92,121.68c-3.562-1.781-7.917,3.393-7.917,7.194c0,3.801,3.519,7.319,7.917,4.241
		C503.317,130.036,501.559,122.999,498.92,121.68z"/>
	<path fill="#ACDE78" d="M463.298,145.43c0,0,6.737-12.382,12.751-15.393c10.269-5.141,6.76,8.202,6.795,11.874
		c0.035,3.673,4.645,7.917,8.604,5.718c3.958-2.199,4.838-7.003,10.556-7.68c5.717-0.677,8.792,10.318,8.792,10.318
		s3.636-5.718,10.016-4.68c3.959,0.644,4.014,8.039,8.589,8.198c4.575,0.16,5.59-12.28,15.705-13.837
		c10.116-1.557,11.343,9.942,16.887,4.633c5.545-5.31-0.139-11.848,7.99-14.531c6.872-2.269,12.964,7.681,14.707,9.091
		c5.273,4.266,6.522,9.807,12.058,15.085c5.535,5.277,9.934,17.152,11.693,21.991c1.759,4.838,3.958,18.032,3.958,18.032
		S512.559,185.454,463.298,145.43z"/>
	<path fill="#6DC274" d="M363.229,172.022c0,0,14.912-32.167,20.896-41.125c6.942-10.391,13.229-27.167,16.487-27.482
		c3.259-0.315,13.056,21.72,22.27,35.613c7.023,10.591,15.114,32.994,15.114,32.994S410.662,208.386,363.229,172.022z"/>
	<path fill="#498A6D" d="M424.335,142.148l13.047,28.211l2.475-0.861c0,0-4.275-8.493-6.472-13.244
		C431.188,151.503,426.277,142.764,424.335,142.148z"/>
	<path fill="#ACDE78" d="M443.503,173.493c0,0-5.514-7.623-11.407-5.57c-5.893,2.052,0,9.676,0,9.676s-12.637-2.933-22.605-1.466
		c-9.97,1.466-17.301,7.916-20.232,7.916s-8.21-11.119-13.487-12.89c-5.278-1.771-8.414,2.806-8.414,2.806s1.959-7.507,0.788-12.346
		s-9.381,7.918-10.554,11.216s40.171,18.838,40.171,18.838S435.293,185.515,443.503,173.493z"/>
	<path fill="#6DC274" d="M369.832,164.11c0,0-4.7-4.802-12.266,2.64c-5.141,5.058-3.348,12.372-6.133,11.729
		c-2.061-0.476-0.733-10.779,5.424-15.688C362.562,158.243,375.33,155.617,369.832,164.11z"/>
	<path fill="#6DC274" d="M362.35,178.953c-1.754-0.988,0.88-5.46,5.729-8.594c3.261-2.106,5.198,0.322,6.142,0.447
		c1.576,0.208,6.08,1.541,3.948,1.001c-3.948-1.001-7.53-0.221-10.214,2.156C365.248,176.359,364.104,179.942,362.35,178.953z"/>
	<g>
		<path fill="#A88862" d="M206.397,205.25v7.199c0,0-0.301,1.801,1.5,1.801s1.5-1.801,1.5-1.801v-7.199H206.397z"/>
		<path fill="#3E7543" d="M207.479,208.845c-3.603,0-3.603-1.801-3.603-1.801s-3.604,1.801-5.405,0c-1.801-1.801,0-5.595,0-5.595
			c1.801-5.405,1.801-9.199,1.801-9.199h14.412c0,0,0,3.794,1.801,9.199c0,0,1.801,3.698,0,5.499
			c-1.801,1.802-5.405,0.048-5.405,0.048S211.081,208.845,207.479,208.845z"/>
		<path fill="#5EA05B" d="M202.074,180.25c0,0-1.801,7.093-3.602,10.695c-0.807,1.612,0,3.546,1.801,3.546
			c3.604,0,3.604-1.83,3.604-1.83s0,3.587,3.603,3.587c3.602,0,3.602-3.609,3.602-3.609s0,1.798,3.604,1.798
			c1.801,0,2.607-1.88,1.801-3.492c-1.801-3.603-3.602-10.697-3.602-10.697H202.074z"/>
		<path fill="#7EC172" d="M207.479,162.91c-1.802,0-5.405,10.808-7.207,14.412c-1.801,3.602,0,5.403,1.801,5.403
			c1.803,0,1.803-1.801,1.803-1.801s0,3.603,3.603,3.603c3.602,0,3.602-3.603,3.602-3.603s0,1.801,1.803,1.801
			c1.801,0,3.602-1.801,1.801-5.403C212.884,173.718,209.28,162.908,207.479,162.91z"/>
	</g>
	<g>
		<path fill="#A88862" d="M219.397,220.25v7.01c0,0-0.49,1.99,1.5,1.99s1.5-1.99,1.5-1.99v-7.01H219.397z"/>
		<path fill="#3E7543" d="M220.556,223.278c-3.98,0-3.98-1.99-3.98-1.99s-3.982,1.99-5.972,0c-1.99-1.99,0-6.027,0-6.027
			c1.99-5.973,1.99-10.011,1.99-10.011h15.923c0,0,0,4.038,1.99,10.011c0,0,1.99,4.009,0,5.999c-1.99,1.991-5.972,0.015-5.972,0.015
			S224.536,223.278,220.556,223.278z"/>
		<path fill="#5EA05B" d="M214.584,192.25c0,0-1.99,7.554-3.98,11.535c-0.89,1.781,0,3.776,1.99,3.776
			c3.982,0,3.982-2.091,3.982-2.091s0,3.928,3.98,3.928s3.98-4.004,3.98-4.004s0,1.978,3.981,1.978c1.99,0,2.88-1.799,1.99-3.58
			c-1.99-3.981-3.98-11.541-3.98-11.541H214.584z"/>
		<path fill="#7EC172" d="M220.556,172.526c-1.99,0-5.972,11.941-7.962,15.923c-1.99,3.98,0,5.97,1.99,5.97
			c1.992,0,1.992-1.99,1.992-1.99s0,3.98,3.98,3.98s3.98-3.98,3.98-3.98s0,1.99,1.992,1.99c1.99,0,3.98-1.99,1.99-5.97
			C226.527,184.468,222.545,172.525,220.556,172.526z"/>
	</g>
	<g>
		<path fill="#A88862" d="M44.397,204.25v7.948c0,0-0.052,2.052,2,2.052s2-2.052,2-2.052v-7.948H44.397z"/>
		<path fill="#3E7543" d="M46.111,208.092c-4.104,0-4.104-2.053-4.104-2.053s-4.106,2.053-6.159,0c-2.052-2.052,0-6.341,0-6.341
			C37.9,193.539,37.9,189.25,37.9,189.25h16.421c0,0,0,4.289,2.052,10.448c0,0,2.052,4.198,0,6.249
			c-2.052,2.053-6.158,0.047-6.158,0.047S50.216,208.092,46.111,208.092z"/>
		<path fill="#5EA05B" d="M39.953,175.25c0,0-2.052,8.212-4.104,12.316c-0.918,1.837,0,4.105,2.052,4.105
			c4.106,0,4.106-2.052,4.106-2.052s0,4.104,4.104,4.104s4.104-4.104,4.104-4.104s0,2.053,4.106,2.053
			c2.052,0,2.971-2.269,2.052-4.105c-2.052-4.105-4.104-12.316-4.104-12.316H39.953z"/>
		<path fill="#7EC172" d="M46.111,155.751c-2.052,0-6.159,12.315-8.211,16.421c-2.052,4.104,0,6.157,2.052,6.157
			c2.054,0,2.054-2.052,2.054-2.052s0,4.104,4.104,4.104s4.104-4.104,4.104-4.104s0,2.052,2.054,2.052
			c2.052,0,4.104-2.052,2.052-6.157C52.27,168.067,48.164,155.75,46.111,155.751z"/>
	</g>
	<g>
		<path fill="#A88862" d="M104.397,219.25v8.037c0,0-0.464,1.963,1.5,1.963c1.963,0,1.5-1.963,1.5-1.963v-8.037H104.397z"/>
		<path fill="#3E7543" d="M105.596,223.358c-3.927,0-3.927-1.963-3.927-1.963s-3.928,1.963-5.891,0c-1.963-1.963,0-6.108,0-6.108
			c1.963-5.891,1.963-10.037,1.963-10.037h15.71c0,0,0,4.146,1.963,10.037c0,0,1.963,4.037,0,6
			c-1.963,1.964-5.891,0.055-5.891,0.055S109.522,223.358,105.596,223.358z"/>
		<path fill="#5EA05B" d="M99.704,192.25c0,0-1.963,7.701-3.926,11.628c-0.879,1.757,0,3.85,1.963,3.85
			c3.928,0,3.928-2.001,3.928-2.001s0,3.906,3.927,3.906s3.927-3.937,3.927-3.937s0,1.959,3.928,1.959
			c1.963,0,2.842-2.019,1.963-3.776c-1.963-3.927-3.926-11.63-3.926-11.63H99.704z"/>
		<path fill="#7EC172" d="M105.596,173.287c-1.963,0-5.892,11.782-7.855,15.71c-1.963,3.926,0,5.89,1.963,5.89
			c1.965,0,1.965-1.963,1.965-1.963s0,3.927,3.927,3.927s3.927-3.927,3.927-3.927s0,1.963,1.965,1.963
			c1.963,0,3.926-1.963,1.963-5.89C111.487,185.069,107.559,173.286,105.596,173.287z"/>
	</g>
	<g>
		<path fill="#A88862" d="M589.397,228.25v7.165c0,0-0.336,1.835,1.5,1.835c1.835,0,1.5-1.835,1.5-1.835v-7.165H589.397z"/>
		<path fill="#3E7543" d="M590.291,231.742c-3.672,0-3.672-1.836-3.672-1.836s-3.673,1.836-5.508,0c-1.836-1.835,0-5.992,0-5.992
			c1.835-5.508,1.835-9.664,1.835-9.664h14.688c0,0,0,4.156,1.836,9.664c0,0,1.835,3.915,0,5.75
			c-1.836,1.836-5.509,0.122-5.509,0.122S593.962,231.742,590.291,231.742z"/>
		<path fill="#5EA05B" d="M584.782,202.25c0,0-1.836,7.403-3.671,11.074c-0.822,1.644,0,3.701,1.835,3.701
			c3.673,0,3.673-1.821,3.673-1.821s0,3.678,3.672,3.678c3.671,0,3.671-3.667,3.671-3.667s0,1.838,3.673,1.838
			c1.836,0,2.657-2.087,1.836-3.729c-1.836-3.672-3.672-11.074-3.672-11.074H584.782z"/>
		<path fill="#7EC172" d="M590.291,184.926c-1.836,0-5.509,11.016-7.345,14.688c-1.835,3.671,0,5.507,1.836,5.507
			c1.837,0,1.837-1.836,1.837-1.836s0,3.671,3.672,3.671c3.671,0,3.671-3.671,3.671-3.671s0,1.836,1.837,1.836
			c1.836,0,3.672-1.836,1.836-5.507C595.799,195.941,592.126,184.924,590.291,184.926z"/>
	</g>
	<g id="tree">
		<path fill="#A88862" d="M642.397,269.25v7.943c0,0-0.057,2.057,2,2.057s2-2.057,2-2.057v-7.943H642.397z"/>
		<path fill="#3E7543" d="M644.087,273.078c-4.113,0-4.113-2.057-4.113-2.057s-4.115,2.057-6.172,0s0-6.328,0-6.328
			c2.057-6.172,2.057-10.443,2.057-10.443h16.457c0,0,0,4.271,2.057,10.443c0,0,2.057,4.193,0,6.249
			c-2.057,2.058-6.172,0.04-6.172,0.04S648.2,273.078,644.087,273.078z"/>
		<path fill="#5EA05B" d="M637.915,240.25c0,0-2.057,8.188-4.113,12.301c-0.92,1.841,0,4.093,2.057,4.093
			c4.115,0,4.115-2.067,4.115-2.067s0,4.107,4.113,4.107s4.113-4.116,4.113-4.116s0,2.056,4.115,2.056
			c2.057,0,2.978-2.233,2.057-4.073c-2.057-4.114-4.113-12.301-4.113-12.301H637.915z"/>
		<path fill="#7EC172" d="M644.087,220.625c-2.057,0-6.172,12.342-8.229,16.457c-2.057,4.114,0,6.17,2.057,6.17
			c2.059,0,2.059-2.057,2.059-2.057s0,4.113,4.113,4.113s4.113-4.113,4.113-4.113s0,2.057,2.059,2.057
			c2.057,0,4.113-2.057,2.057-6.17C650.259,232.967,646.144,220.623,644.087,220.625z"/>
	</g>
	
		<path fill="none" stroke="#FFFFFF" stroke-width="5" stroke-linecap="round" stroke-linejoin="round" stroke-miterlimit="10" stroke-opacity="0.5" stroke-dasharray="16,18" d="
		M445.403,144.715c23.677,25.308,87.363,18.403,78.091,51.661c-9.617,34.494-196.731-21.958-197.261,44.875
		c-0.513,64.718,161.398,45.4,197.261,134"/>
	<g id="shrub">
		<path fill="#7EC66A" d="M373.092,236.931c0,0-4.442,1.426-5.763,4.549c-2.99,7.073,2.717,9.784,2.717,9.784l7.25,5.375
			c0,0,5.709,4.581,11.477,1.736c4.429-2.185,5.247-4.763,5.247-4.763s3.942,2.124,7.582,0c3.639-2.123,3.639-6.976,3.639-6.976
			s3.943-3.641,3.337-8.796c-0.606-5.156-7.582-5.763-7.582-5.763s-1.517-6.37-6.976-7.886c-5.46-1.517-10.01,3.64-10.01,3.64
			s-4.246-2.426-7.886,0.304S373.092,236.931,373.092,236.931z"/>
		<circle fill="#68AF5B" cx="388.231" cy="253.084" r="1.833"/>
		<ellipse fill="#68AF5B" cx="395.23" cy="237.25" rx="1.5" ry="1.667"/>
	</g>
</g>
</svg>
