<?xml version="1.0" encoding="UTF-8" standalone="no"?>
<svg width="251px" height="35px" viewBox="0 0 251 35" version="1.1" xmlns="http://www.w3.org/2000/svg" xmlns:xlink="http://www.w3.org/1999/xlink">
    <!-- Generator: Sketch 42 (36781) - http://www.bohemiancoding.com/sketch -->
    <title>Page 1</title>
    <desc>Created with Sketch.</desc>
    <defs></defs>
    <g id="Symbols" stroke="none" stroke-width="1" fill="none" fill-rule="evenodd">
        <g id="WINDERFUL-LOGO" transform="translate(0.000000, -1.000000)" fill="#FFFFFF">
            <g id="Page-1" transform="translate(0.000000, 1.000000)">
                <polygon id="W" points="30.1875 23.4517375 30.328125 23.4517375 35.203125 0.0611125 41.8828125 0.0611125 33.9140625 34.1861125 27.5625 34.1861125 21.3046875 11.662675 21.1640625 11.662675 14.90625 34.1861125 8.5546875 34.1861125 0.5625 0.0611125 7.265625 0.0611125 12.1640625 23.4283 12.3046875 23.4517375 18.703125 0.0611125 23.7421875 0.0611125"></polygon>
                <polygon id="I" points="51.061125 34.1861125 44.217375 34.1861125 44.217375 0.0611125 51.061125 0.0611125"></polygon>
                <polygon id="N" points="82.5654375 34.1861125 75.745125 34.1861125 61.963875 10.8658 61.82325 10.8892375 61.82325 34.1861125 54.9795 34.1861125 54.9795 0.0611125 61.82325 0.0611125 75.6045 23.3579875 75.745125 23.33455 75.745125 0.0611125 82.5654375 0.0611125"></polygon>
                <path d="M86.0835,34.1861125 L86.0835,0.0611125 L97.80225,0.0611125 C101.974146,0.0611125 105.411611,1.39313043 108.11475,4.05720625 C110.817889,6.72128207 112.169438,10.1392166 112.169438,14.3111125 L112.169438,19.95955 C112.169438,24.1470709 110.817889,27.5650055 108.11475,30.2134563 C105.411611,32.861907 101.974146,34.1861125 97.80225,34.1861125 L86.0835,34.1861125 Z M92.92725,5.33455 L92.92725,28.9361125 L97.4506875,28.9361125 C99.9038248,28.9361125 101.825681,28.1079958 103.216313,26.4517375 C104.606944,24.7954792 105.30225,22.6314384 105.30225,19.95955 L105.30225,14.2642375 C105.30225,11.6235993 104.606944,9.47518328 103.216313,7.818925 C101.825681,6.16266672 99.9038248,5.33455 97.4506875,5.33455 L92.92725,5.33455 Z" id="D"></path>
                <polygon id="E" points="136.580063 19.1861125 122.44725 19.1861125 122.44725 28.9361125 138.970688 28.9361125 138.970688 34.1861125 115.6035 34.1861125 115.6035 0.0611125 138.923813 0.0611125 138.923813 5.33455 122.44725 5.33455 122.44725 13.912675 136.580063 13.912675"></polygon>
                <path d="M149.03925,20.5454875 L149.03925,34.1861125 L142.1955,34.1861125 L142.1955,0.0611125 L155.062687,0.0611125 C158.953332,0.0611125 161.99627,0.947822383 164.191594,2.72126875 C166.386917,4.49471512 167.484562,6.96734664 167.484562,10.1392375 C167.484562,11.9048713 167.02363,13.4204812 166.10175,14.6861125 C165.17987,15.9517438 163.828321,16.9751711 162.047062,17.756425 C164.062698,18.350178 165.511902,19.3423555 166.394719,20.7329875 C167.277536,22.1236195 167.718937,23.8423523 167.718937,25.8892375 L167.718937,28.39705 C167.718937,29.3501798 167.847842,30.3462636 168.105656,31.3853313 C168.36347,32.4243989 168.804872,33.1939225 169.429875,33.693925 L169.429875,34.1861125 L162.375187,34.1861125 C161.750184,33.68611 161.343938,32.8501809 161.156437,31.6783 C160.968937,30.5064191 160.875187,29.3970552 160.875187,28.350175 L160.875187,25.9361125 C160.875187,24.232979 160.410348,22.9087735 159.480656,21.9634563 C158.550964,21.018139 157.242383,20.5454875 155.554875,20.5454875 L149.03925,20.5454875 Z M149.03925,15.27205 L154.9455,15.27205 C156.867385,15.27205 158.300964,14.8658041 159.246281,14.0533 C160.191598,13.2407959 160.66425,12.037683 160.66425,10.443925 C160.66425,8.88141719 160.191598,7.63924211 159.246281,6.7173625 C158.300964,5.79548289 156.906447,5.33455 155.062687,5.33455 L149.03925,5.33455 L149.03925,15.27205 Z" id="R"></path>
                <polygon id="F" points="193.144125 20.006425 178.84725 20.006425 178.84725 34.1861125 172.0035 34.1861125 172.0035 0.0611125 195.53475 0.0611125 195.53475 5.33455 178.84725 5.33455 178.84725 14.7329875 193.144125 14.7329875"></polygon>
                <path d="M224.7795,0.0611125 L224.7795,22.7017375 C224.7795,26.5298816 223.513888,29.4829771 220.982625,31.5611125 C218.451362,33.6392479 215.138895,34.6783 211.045125,34.6783 C206.96698,34.6783 203.674044,33.6392479 201.166219,31.5611125 C198.658394,29.4829771 197.4045,26.5298816 197.4045,22.7017375 L197.4045,0.0611125 L204.271688,0.0611125 L204.271688,22.7017375 C204.271688,24.9517488 204.873244,26.6353257 206.076375,27.7525188 C207.279506,28.8697118 208.935739,29.4283 211.045125,29.4283 C213.185761,29.4283 214.865431,28.873618 216.084188,27.7642375 C217.302944,26.654857 217.912313,24.9673738 217.912313,22.7017375 L217.912313,0.0611125 L224.7795,0.0611125 Z" id="U"></path>
                <polygon id="L" points="235.67925 28.9361125 250.86675 28.9361125 250.86675 34.1861125 228.8355 34.1861125 228.8355 0.0611125 235.67925 0.0611125"></polygon>
            </g>
        </g>
    </g>
</svg>