<?xml version="1.0" encoding="UTF-8" standalone="no"?>
<svg width="400px" height="56px" viewBox="0 0 400 56" version="1.1" xmlns="http://www.w3.org/2000/svg" xmlns:xlink="http://www.w3.org/1999/xlink">
    <!-- Generator: Sketch 42 (36781) - http://www.bohemiancoding.com/sketch -->
    <title>Page 1</title>
    <desc>Created with Sketch.</desc>
    <defs></defs>
    <g id="Symbols" stroke="none" stroke-width="1" fill="none" fill-rule="evenodd">
        <g id="WINDERFUL-LOGO" transform="translate(0.000000, -1.000000)" fill="#FFFFFF">
            <g id="Page-1" transform="translate(0.000000, 1.000000)">
                <polygon id="W" points="48.1075697 37.3732869 48.3316733 37.3732869 56.1005976 0.0973904382 66.7455179 0.0973904382 54.0463147 54.4798606 43.9243028 54.4798606 33.9516932 18.5859363 33.7275896 18.5859363 23.7549801 54.4798606 13.6329681 54.4798606 0.896414343 0.0973904382 11.5786853 0.0973904382 19.3849602 37.3359363 19.6090637 37.3732869 29.8057769 0.0973904382 37.8361554 0.0973904382"></polygon>
                <polygon id="I" points="81.3723108 54.4798606 70.4659363 54.4798606 70.4659363 0.0973904382 81.3723108 0.0973904382"></polygon>
                <polygon id="N" points="131.578386 54.4798606 120.709363 54.4798606 98.7472112 17.3160159 98.5231076 17.3533665 98.5231076 54.4798606 87.6167331 54.4798606 87.6167331 0.0973904382 98.5231076 0.0973904382 120.485259 37.2238845 120.709363 37.1865339 120.709363 0.0973904382 131.578386 0.0973904382"></polygon>
                <path d="M137.184861,54.4798606 L137.184861,0.0973904382 L155.860159,0.0973904382 C162.508599,0.0973904382 167.986632,2.22012817 172.294422,6.46566733 C176.602213,10.7112065 178.756076,16.1581142 178.756076,22.8065538 L178.756076,31.8080478 C178.756076,38.4813879 176.602213,43.9282956 172.294422,48.1489343 C167.986632,52.3695729 162.508599,54.4798606 155.860159,54.4798606 L137.184861,54.4798606 Z M148.091235,8.5012749 L148.091235,46.1133267 L155.2999,46.1133267 C159.209282,46.1133267 162.272001,44.7936188 164.488147,42.1541633 C166.704294,39.5147079 167.812351,36.0660372 167.812351,31.8080478 L167.812351,22.7318526 C167.812351,18.5236642 166.704294,15.0998937 164.488147,12.4604382 C162.272001,9.82098282 159.209282,8.5012749 155.2999,8.5012749 L148.091235,8.5012749 Z" id="D"></path>
                <polygon id="E" points="217.65747 30.5754781 195.13506 30.5754781 195.13506 46.1133267 221.467231 46.1133267 221.467231 54.4798606 184.228685 54.4798606 184.228685 0.0973904382 221.39253 0.0973904382 221.39253 8.5012749 195.13506 8.5012749 195.13506 22.1715936 217.65747 22.1715936"></polygon>
                <path d="M237.512749,32.7418127 L237.512749,54.4798606 L226.606375,54.4798606 L226.606375,0.0973904382 L247.111853,0.0973904382 C253.312083,0.0973904382 258.161387,1.51047392 261.65991,4.33668327 C265.158434,7.16289262 266.907669,11.1033413 266.907669,16.1581474 C266.907669,18.9719065 266.173115,21.387221 264.703984,23.4041633 C263.234853,25.4211057 261.08099,27.0520655 258.242331,28.2970916 C261.454498,29.2433115 263.763987,30.824471 265.170867,33.0406175 C266.577746,35.2567641 267.281175,37.9957805 267.281175,41.257749 L267.281175,45.2542629 C267.281175,46.7731948 267.486602,48.3605794 267.89746,50.0164641 C268.308319,51.6723489 269.011748,52.8986813 270.007769,53.695498 L270.007769,54.4798606 L258.765239,54.4798606 C257.769218,53.6830438 257.121814,52.3508858 256.823008,50.4833466 C256.524202,48.6158074 256.374801,46.8478968 256.374801,45.1795618 L256.374801,41.3324502 C256.374801,38.6182932 255.634021,36.5080055 254.15244,35.0015239 C252.670859,33.4950423 250.585472,32.7418127 247.896215,32.7418127 L237.512749,32.7418127 Z M237.512749,24.3379283 L246.9251,24.3379283 C249.987864,24.3379283 252.272453,23.6905244 253.778934,22.3956972 C255.285416,21.10087 256.038645,19.1835585 256.038645,16.6437052 C256.038645,14.1536529 255.285416,12.174091 253.778934,10.7049602 C252.272453,9.23582931 250.050114,8.5012749 247.111853,8.5012749 L237.512749,8.5012749 L237.512749,24.3379283 Z" id="R"></path>
                <polygon id="F" points="307.799402 31.882749 285.015538 31.882749 285.015538 54.4798606 274.109163 54.4798606 274.109163 0.0973904382 311.609163 0.0973904382 311.609163 8.5012749 285.015538 8.5012749 285.015538 23.4788645 307.799402 23.4788645"></polygon>
                <path d="M358.214343,0.0973904382 L358.214343,36.1780677 C358.214343,42.2786958 356.197431,46.9848241 352.163546,50.2965936 C348.129661,53.6083632 342.850829,55.2642231 336.326892,55.2642231 C329.827856,55.2642231 324.580149,53.6083632 320.583616,50.2965936 C316.587082,46.9848241 314.588845,42.2786958 314.588845,36.1780677 L314.588845,0.0973904382 L325.53257,0.0973904382 L325.53257,36.1780677 C325.53257,39.763743 326.491225,42.4467341 328.408566,44.2271215 C330.325906,46.0075089 332.965322,46.8976892 336.326892,46.8976892 C339.738264,46.8976892 342.41503,46.0137339 344.357271,44.2457968 C346.299512,42.4778597 347.270618,39.7886436 347.270618,36.1780677 L347.270618,0.0973904382 L358.214343,0.0973904382 Z" id="U"></path>
                <polygon id="L" points="375.584462 46.1133267 399.787649 46.1133267 399.787649 54.4798606 364.678088 54.4798606 364.678088 0.0973904382 375.584462 0.0973904382"></polygon>
            </g>
        </g>
    </g>
</svg>